<mxfile host="app.diagrams.net" modified="2024-05-22T02:11:15.444Z" agent="Mozilla/5.0 (Macintosh; Intel Mac OS X 10_15_7) AppleWebKit/537.36 (KHTML, like Gecko) Chrome/124.0.0.0 Safari/537.36" etag="J-eTBRIuMhA6upj0Vkr4" version="24.3.1" type="github">
  <diagram name="第 1 页" id="K2Ei-RKrbSjRRzY-txQS">
    <mxGraphModel dx="1135" dy="731" grid="1" gridSize="10" guides="1" tooltips="1" connect="1" arrows="1" fold="1" page="1" pageScale="1" pageWidth="827" pageHeight="1169" math="0" shadow="0">
      <root>
        <mxCell id="0" />
        <mxCell id="1" parent="0" />
        <mxCell id="xhgPJzPOxv2GRsaIVT1Q-6" style="edgeStyle=orthogonalEdgeStyle;rounded=0;orthogonalLoop=1;jettySize=auto;html=1;exitX=1;exitY=0.5;exitDx=0;exitDy=0;" edge="1" parent="1" source="xhgPJzPOxv2GRsaIVT1Q-1">
          <mxGeometry relative="1" as="geometry">
            <mxPoint x="330" y="170" as="targetPoint" />
          </mxGeometry>
        </mxCell>
        <mxCell id="xhgPJzPOxv2GRsaIVT1Q-1" value="" style="rounded=0;whiteSpace=wrap;html=1;dashed=1;dashPattern=8 8;" vertex="1" parent="1">
          <mxGeometry x="120" y="70" width="140" height="200" as="geometry" />
        </mxCell>
        <mxCell id="xhgPJzPOxv2GRsaIVT1Q-2" value="Node IM 心跳" style="rounded=0;whiteSpace=wrap;html=1;" vertex="1" parent="1">
          <mxGeometry x="140" y="90" width="100" height="50" as="geometry" />
        </mxCell>
        <mxCell id="xhgPJzPOxv2GRsaIVT1Q-3" value="MQ上报" style="rounded=0;whiteSpace=wrap;html=1;" vertex="1" parent="1">
          <mxGeometry x="140" y="160" width="100" height="50" as="geometry" />
        </mxCell>
        <mxCell id="xhgPJzPOxv2GRsaIVT1Q-4" value="数据上报" style="text;html=1;align=center;verticalAlign=middle;resizable=0;points=[];autosize=1;strokeColor=none;fillColor=none;" vertex="1" parent="1">
          <mxGeometry x="155" y="40" width="70" height="30" as="geometry" />
        </mxCell>
        <mxCell id="xhgPJzPOxv2GRsaIVT1Q-5" value="" style="endArrow=none;dashed=1;html=1;dashPattern=1 3;strokeWidth=2;rounded=0;" edge="1" parent="1">
          <mxGeometry width="50" height="50" relative="1" as="geometry">
            <mxPoint x="300" y="610" as="sourcePoint" />
            <mxPoint x="300" y="20" as="targetPoint" />
          </mxGeometry>
        </mxCell>
        <mxCell id="xhgPJzPOxv2GRsaIVT1Q-9" value="data-statisic 服务" style="text;html=1;align=center;verticalAlign=middle;resizable=0;points=[];autosize=1;strokeColor=none;fillColor=none;" vertex="1" parent="1">
          <mxGeometry x="380" y="40" width="110" height="30" as="geometry" />
        </mxCell>
        <mxCell id="xhgPJzPOxv2GRsaIVT1Q-10" value="" style="endArrow=none;dashed=1;html=1;dashPattern=1 3;strokeWidth=2;rounded=0;" edge="1" parent="1">
          <mxGeometry width="50" height="50" relative="1" as="geometry">
            <mxPoint x="530" y="600" as="sourcePoint" />
            <mxPoint x="530" y="20" as="targetPoint" />
          </mxGeometry>
        </mxCell>
        <mxCell id="xhgPJzPOxv2GRsaIVT1Q-14" value="" style="edgeStyle=orthogonalEdgeStyle;rounded=0;orthogonalLoop=1;jettySize=auto;html=1;" edge="1" parent="1" source="xhgPJzPOxv2GRsaIVT1Q-11" target="xhgPJzPOxv2GRsaIVT1Q-13">
          <mxGeometry relative="1" as="geometry" />
        </mxCell>
        <mxCell id="xhgPJzPOxv2GRsaIVT1Q-11" value="写入本地日志" style="whiteSpace=wrap;html=1;" vertex="1" parent="1">
          <mxGeometry x="354" y="90" width="120" height="60" as="geometry" />
        </mxCell>
        <mxCell id="xhgPJzPOxv2GRsaIVT1Q-12" value="消费MQ" style="whiteSpace=wrap;html=1;" vertex="1" parent="1">
          <mxGeometry x="354" y="210" width="116" height="60" as="geometry" />
        </mxCell>
        <mxCell id="xhgPJzPOxv2GRsaIVT1Q-17" value="" style="edgeStyle=orthogonalEdgeStyle;rounded=0;orthogonalLoop=1;jettySize=auto;html=1;" edge="1" parent="1" source="xhgPJzPOxv2GRsaIVT1Q-13" target="xhgPJzPOxv2GRsaIVT1Q-16">
          <mxGeometry relative="1" as="geometry" />
        </mxCell>
        <mxCell id="xhgPJzPOxv2GRsaIVT1Q-13" value="数据采集 filebeat" style="whiteSpace=wrap;html=1;" vertex="1" parent="1">
          <mxGeometry x="590" y="90" width="120" height="60" as="geometry" />
        </mxCell>
        <mxCell id="xhgPJzPOxv2GRsaIVT1Q-30" style="edgeStyle=orthogonalEdgeStyle;rounded=0;orthogonalLoop=1;jettySize=auto;html=1;exitX=0.855;exitY=1;exitDx=0;exitDy=-4.35;exitPerimeter=0;entryX=1;entryY=0.75;entryDx=0;entryDy=0;" edge="1" parent="1" source="xhgPJzPOxv2GRsaIVT1Q-16" target="xhgPJzPOxv2GRsaIVT1Q-27">
          <mxGeometry relative="1" as="geometry">
            <Array as="points">
              <mxPoint x="670" y="276" />
              <mxPoint x="670" y="428" />
            </Array>
          </mxGeometry>
        </mxCell>
        <mxCell id="xhgPJzPOxv2GRsaIVT1Q-16" value="es" style="shape=cylinder3;whiteSpace=wrap;html=1;boundedLbl=1;backgroundOutline=1;size=15;" vertex="1" parent="1">
          <mxGeometry x="620" y="200" width="60" height="80" as="geometry" />
        </mxCell>
        <mxCell id="xhgPJzPOxv2GRsaIVT1Q-21" value="" style="edgeStyle=none;orthogonalLoop=1;jettySize=auto;html=1;rounded=0;exitX=1;exitY=0.5;exitDx=0;exitDy=0;entryX=0;entryY=0.5;entryDx=0;entryDy=0;entryPerimeter=0;" edge="1" parent="1" source="xhgPJzPOxv2GRsaIVT1Q-12" target="xhgPJzPOxv2GRsaIVT1Q-16">
          <mxGeometry width="80" relative="1" as="geometry">
            <mxPoint x="610" y="430" as="sourcePoint" />
            <mxPoint x="690" y="430" as="targetPoint" />
            <Array as="points" />
          </mxGeometry>
        </mxCell>
        <mxCell id="xhgPJzPOxv2GRsaIVT1Q-24" value="" style="rounded=0;whiteSpace=wrap;html=1;dashed=1;dashPattern=8 8;" vertex="1" parent="1">
          <mxGeometry x="120" y="370" width="140" height="200" as="geometry" />
        </mxCell>
        <mxCell id="xhgPJzPOxv2GRsaIVT1Q-25" value="数据查询" style="text;html=1;align=center;verticalAlign=middle;resizable=0;points=[];autosize=1;strokeColor=none;fillColor=none;" vertex="1" parent="1">
          <mxGeometry x="150" y="340" width="70" height="30" as="geometry" />
        </mxCell>
        <mxCell id="xhgPJzPOxv2GRsaIVT1Q-28" value="" style="edgeStyle=orthogonalEdgeStyle;rounded=0;orthogonalLoop=1;jettySize=auto;html=1;" edge="1" parent="1" source="xhgPJzPOxv2GRsaIVT1Q-26" target="xhgPJzPOxv2GRsaIVT1Q-27">
          <mxGeometry relative="1" as="geometry" />
        </mxCell>
        <mxCell id="xhgPJzPOxv2GRsaIVT1Q-26" value="数据查询" style="rounded=0;whiteSpace=wrap;html=1;" vertex="1" parent="1">
          <mxGeometry x="140" y="390" width="90" height="50" as="geometry" />
        </mxCell>
        <mxCell id="xhgPJzPOxv2GRsaIVT1Q-32" style="edgeStyle=orthogonalEdgeStyle;rounded=0;orthogonalLoop=1;jettySize=auto;html=1;exitX=0;exitY=0.75;exitDx=0;exitDy=0;entryX=1;entryY=0.75;entryDx=0;entryDy=0;" edge="1" parent="1" source="xhgPJzPOxv2GRsaIVT1Q-27" target="xhgPJzPOxv2GRsaIVT1Q-26">
          <mxGeometry relative="1" as="geometry" />
        </mxCell>
        <mxCell id="xhgPJzPOxv2GRsaIVT1Q-27" value="聚合查询" style="rounded=0;whiteSpace=wrap;html=1;" vertex="1" parent="1">
          <mxGeometry x="367" y="390" width="90" height="50" as="geometry" />
        </mxCell>
        <mxCell id="xhgPJzPOxv2GRsaIVT1Q-29" style="edgeStyle=orthogonalEdgeStyle;rounded=0;orthogonalLoop=1;jettySize=auto;html=1;exitX=1;exitY=0.5;exitDx=0;exitDy=0;entryX=0.5;entryY=1;entryDx=0;entryDy=0;entryPerimeter=0;" edge="1" parent="1" source="xhgPJzPOxv2GRsaIVT1Q-27" target="xhgPJzPOxv2GRsaIVT1Q-16">
          <mxGeometry relative="1" as="geometry" />
        </mxCell>
      </root>
    </mxGraphModel>
  </diagram>
</mxfile>
